<svg width="162" height="42" viewBox="0 0 162 42" fill="none" xmlns="http://www.w3.org/2000/svg">
<path d="M61.5688 33.2163C58.6094 33.2163 56.1065 32.7125 54.0601 31.7051C52.0452 30.6661 50.5183 29.092 49.4793 26.9826C48.4404 24.8733 47.9209 22.1972 47.9209 18.9545C47.9209 15.6803 48.4404 13.0042 49.4793 10.9263C50.5183 8.81699 52.0452 7.25858 54.0601 6.25113C56.1065 5.21219 58.6094 4.69272 61.5688 4.69272C64.4967 4.69272 66.9681 5.21219 68.983 6.25113C71.0294 7.25858 72.5721 8.81699 73.611 10.9263C74.6814 13.0357 75.2166 15.7118 75.2166 18.9545C75.2166 22.1972 74.6814 24.8733 73.611 26.9826C72.5721 29.092 71.0294 30.6661 68.983 31.7051C66.9681 32.7125 64.4967 33.2163 61.5688 33.2163ZM61.5688 29.155C63.2688 29.155 64.7013 28.8244 65.8662 28.1633C67.0625 27.4706 67.9598 26.3687 68.558 24.8575C69.1876 23.3464 69.5025 21.3787 69.5025 18.9545C69.5025 16.4988 69.1876 14.5311 68.558 13.0514C67.9598 11.5403 67.0625 10.4541 65.8662 9.79296C64.7013 9.10034 63.2688 8.75402 61.5688 8.75402C59.8687 8.75402 58.4205 9.10034 57.2241 9.79296C56.0593 10.4541 55.162 11.5403 54.5323 13.0514C53.9027 14.5311 53.5878 16.4988 53.5878 18.9545C53.5878 21.3787 53.9027 23.3464 54.5323 24.8575C55.162 26.3687 56.0593 27.4706 57.2241 28.1633C58.4205 28.8244 59.8687 29.155 61.5688 29.155Z" fill="white"/>
<path d="M78.3773 5.25942H83.1942L83.4776 16.5933H83.9026V32.6968H78.3773V5.25942ZM98.4477 14.4682C98.4477 13.1459 98.2431 12.0755 97.8338 11.2569C97.4245 10.4384 96.7791 9.84018 95.8976 9.46239C95.0161 9.08459 93.8512 8.8957 92.403 8.8957C90.6085 8.8957 89.113 9.22627 87.9167 9.88741C86.7203 10.5171 85.7758 11.6347 85.0832 13.2403C84.3906 14.846 83.997 17.0655 83.9026 19.899H83.0998C83.1942 16.121 83.7137 13.1144 84.6582 10.8791C85.6027 8.64383 86.9092 7.05394 88.5778 6.10946C90.2464 5.16497 92.277 4.69272 94.6697 4.69272C97.818 4.69272 100.164 5.46406 101.706 7.00672C103.249 8.5179 104.02 10.7217 104.02 13.6181V32.6968H98.4477V14.4682Z" fill="white"/>
<path d="M119.747 42C117.543 42 115.607 41.7481 113.938 41.2444C112.301 40.7722 110.948 39.9694 109.877 38.836C108.838 37.7341 108.161 36.2701 107.846 34.4441H113.041C113.324 35.8608 114.033 36.8683 115.166 37.4665C116.3 38.0646 117.811 38.3637 119.7 38.3637C121.431 38.3637 122.848 38.1748 123.95 37.797C125.052 37.4192 125.886 36.7738 126.453 35.8608C127.02 34.9793 127.303 33.7672 127.303 32.2245V5.25942H132.875V31.3745C132.875 33.8302 132.387 35.8293 131.411 37.372C130.467 38.9147 129.034 40.0638 127.114 40.8194C125.194 41.6065 122.738 42 119.747 42ZM116.63 32.2718C113.545 32.2718 111.278 31.5634 109.83 30.1467C108.413 28.7299 107.705 26.6048 107.705 23.7714V5.25942H113.277V22.8741C113.277 24.7631 113.718 26.1483 114.6 27.0299C115.481 27.8799 116.977 28.3049 119.086 28.3049C120.66 28.3049 122.045 28.0058 123.242 27.4077C124.438 26.778 125.414 25.6918 126.17 24.1492C126.925 22.575 127.319 20.4184 127.35 17.6794H128.153C128.027 21.3629 127.429 24.2908 126.358 26.4632C125.319 28.604 123.966 30.1152 122.297 30.9967C120.66 31.8468 118.771 32.2718 116.63 32.2718Z" fill="white"/>
<path d="M147.816 19.899L144.274 19.6629L135.774 5.25942H141.913L148.572 16.9711L152.113 17.2544L161.228 32.6968H155.089L147.816 19.899ZM144.699 16.8766L148.572 19.6156L141.063 32.6968H135.018L144.699 16.8766ZM147.863 17.4433L154.711 5.25942H160.661L151.83 20.0407L147.863 17.4433Z" fill="white"/>
<path fill-rule="evenodd" clip-rule="evenodd" d="M36.252 22.969C37.1832 22.969 37.9459 23.7255 37.8632 24.653C37.5818 27.8106 36.5124 30.857 34.7413 33.5077C32.6569 36.6271 29.6943 39.0584 26.2282 40.4942C22.7621 41.9299 18.948 42.3055 15.2684 41.5736C11.5887 40.8417 8.20879 39.0351 5.55592 36.3822C2.90305 33.7293 1.09642 30.3494 0.364494 26.6697C-0.367431 22.9901 0.00821903 19.176 1.44394 15.7099C2.87966 12.2438 5.31098 9.28119 8.43042 7.19685C11.0811 5.4257 14.1275 4.35627 17.2851 4.07487C18.2126 3.9922 18.9691 4.75489 18.9691 5.68612L18.9691 11.5876C18.9691 12.5188 19.724 13.2738 20.6552 13.2738H26.5567C27.4879 13.2738 28.2428 12.5188 28.2428 11.5876V5.68614C28.2428 4.75491 28.9977 4 29.929 4H36.252C37.1832 4 37.9381 4.75491 37.9381 5.68614V12.0092C37.9381 12.9404 37.1832 13.6953 36.252 13.6953H30.3505C29.4193 13.6953 28.6644 14.4502 28.6644 15.3814V21.2829C28.6644 22.2141 29.4193 22.9691 30.3505 22.969L36.252 22.969ZM20.6552 22.969C19.724 22.9691 18.9691 22.2141 18.9691 21.2829L18.9691 15.4205C18.9691 14.4893 18.208 13.7188 17.2922 13.8879C16.0634 14.1148 14.8873 14.5899 13.8386 15.2907C12.3199 16.3054 11.1363 17.7477 10.4373 19.4351C9.73839 21.1225 9.55551 22.9793 9.91184 24.7706C10.2682 26.562 11.1477 28.2074 12.4392 29.4989C13.7307 30.7904 15.3761 31.6699 17.1675 32.0263C18.9588 32.3826 20.8156 32.1997 22.503 31.5008C24.1904 30.8018 25.6327 29.6182 26.6474 28.0995C27.3482 27.0508 27.8233 25.8748 28.0502 24.6459C28.2193 23.7301 27.4488 22.969 26.5176 22.969L20.6552 22.969Z" fill="white"/>
</svg>
