<svg width="131" height="42" viewBox="0 0 131 42" fill="none" xmlns="http://www.w3.org/2000/svg">
<path fill-rule="evenodd" clip-rule="evenodd" d="M36.0716 22.8747C36.9982 22.8747 37.7571 23.6273 37.6748 24.5503C37.3948 27.6921 36.3307 30.7234 34.5684 33.3609C32.4944 36.4648 29.5466 38.884 26.0977 40.3126C22.6488 41.7412 18.8537 42.115 15.1924 41.3867C11.5311 40.6584 8.16794 38.8608 5.52827 36.2211C2.8886 33.5814 1.09096 30.2183 0.36268 26.5569C-0.365603 22.8956 0.00817811 19.1005 1.43676 15.6516C2.86534 12.2027 5.28455 9.25492 8.38848 7.18094C11.026 5.41861 14.0572 4.3545 17.1991 4.0745C18.122 3.99224 18.8747 4.75114 18.8747 5.67773L18.8747 11.5499C18.8747 12.4765 19.6258 13.2276 20.5524 13.2276H26.4246C27.3511 13.2276 28.1023 12.4765 28.1023 11.5499V5.67775C28.1023 4.75115 28.8535 4 29.7801 4H36.0716C36.9982 4 37.7494 4.75115 37.7494 5.67775V11.9693C37.7494 12.8959 36.9982 13.6471 36.0716 13.6471H30.1995C29.2729 13.6471 28.5217 14.3982 28.5217 15.3248V21.1969C28.5217 22.1235 29.2729 22.8747 30.1995 22.8747L36.0716 22.8747ZM20.5524 22.8747C19.6258 22.8747 18.8747 22.1235 18.8747 21.1969L18.8747 15.3637C18.8747 14.4371 18.1174 13.6704 17.2062 13.8387C15.9834 14.0645 14.8133 14.5372 13.7697 15.2345C12.2586 16.2442 11.0809 17.6793 10.3854 19.3583C9.68994 21.0373 9.50797 22.8849 9.86252 24.6673C10.2171 26.4497 11.0922 28.087 12.3773 29.3721C13.6623 30.6571 15.2996 31.5323 17.0821 31.8868C18.8645 32.2414 20.712 32.0594 22.3911 31.3639C24.0701 30.6685 25.5052 29.4907 26.5148 27.9797C27.2121 26.9361 27.6849 25.7659 27.9107 24.5431C28.0789 23.6319 27.3123 22.8747 26.3857 22.8747L20.5524 22.8747Z" fill="white"/>
<path d="M60.956 34.7258C58.1337 34.7258 55.7466 34.2454 53.795 33.2846C51.8734 32.2937 50.4172 30.7925 49.4263 28.7808C48.4355 26.7691 47.9401 24.2169 47.9401 21.1243C47.9401 18.0017 48.4355 15.4495 49.4263 13.4679C50.4172 11.4562 51.8734 9.96991 53.795 9.0091C55.7466 8.01826 58.1337 7.52284 60.956 7.52284C63.7484 7.52284 66.1054 8.01826 68.027 9.0091C69.9786 9.96991 71.4499 11.4562 72.4407 13.4679C73.4616 15.4796 73.972 18.0317 73.972 21.1243C73.972 24.2169 73.4616 26.7691 72.4407 28.7808C71.4499 30.7925 69.9786 32.2937 68.027 33.2846C66.1054 34.2454 63.7484 34.7258 60.956 34.7258ZM60.956 30.8525C62.5774 30.8525 63.9436 30.5372 65.0545 29.9067C66.1955 29.2462 67.0512 28.1953 67.6217 26.7541C68.2222 25.3128 68.5224 23.4363 68.5224 21.1243C68.5224 18.7823 68.2222 16.9058 67.6217 15.4946C67.0512 14.0533 66.1955 13.0175 65.0545 12.3869C63.9436 11.7264 62.5774 11.3961 60.956 11.3961C59.3347 11.3961 57.9535 11.7264 56.8125 12.3869C55.7016 13.0175 54.8459 14.0533 54.2454 15.4946C53.6449 16.9058 53.3446 18.7823 53.3446 21.1243C53.3446 23.4363 53.6449 25.3128 54.2454 26.7541C54.8459 28.1953 55.7016 29.2462 56.8125 29.9067C57.9535 30.5372 59.3347 30.8525 60.956 30.8525Z" fill="white"/>
<path d="M88.7365 22.025L85.3587 21.7998L77.2519 8.06326H83.1068L89.4571 19.2327L92.835 19.5029L101.527 34.2303H95.6724L88.7365 22.025ZM85.764 19.1426L89.4571 21.7548L82.2961 34.2303H76.5312L85.764 19.1426ZM88.7816 19.6831L95.3121 8.06326H100.987L92.5648 22.1601L88.7816 19.6831Z" fill="white"/>
<path d="M117.8 41.0198C115.698 41.0198 113.852 40.7796 112.26 40.2992C110.699 39.8488 109.408 39.0831 108.387 38.0022C107.396 36.9514 106.751 35.5552 106.45 33.8137H111.404C111.675 35.1648 112.35 36.1257 113.431 36.6961C114.512 37.2666 115.953 37.5519 117.755 37.5519C119.406 37.5519 120.757 37.3717 121.808 37.0114C122.859 36.6511 123.655 36.0356 124.195 35.1648C124.736 34.3241 125.006 33.1682 125.006 31.6969V7.96808H130.32V30.8862C130.32 33.2282 129.855 35.1348 128.924 36.6061C128.023 38.0773 126.657 39.1732 124.826 39.8938C122.994 40.6445 120.652 41.0198 117.8 41.0198ZM114.827 31.742C111.885 31.742 109.723 31.0664 108.342 29.7153C106.991 28.3641 106.315 26.3374 106.315 23.6351V7.96808H111.63V22.7794C111.63 24.5809 112.05 25.902 112.891 26.7427C113.731 27.5534 115.158 27.9588 117.169 27.9588C118.671 27.9588 119.992 27.6735 121.133 27.1031C122.274 26.5025 123.204 25.4667 123.925 23.9954C124.646 22.4942 125.021 20.4374 125.051 17.8252H125.817C125.697 21.3382 125.126 24.1305 124.105 26.2023C123.114 28.244 121.823 29.6852 120.232 30.5259C118.671 31.3366 116.869 31.742 114.827 31.742Z" fill="white"/>
</svg>
