<svg xmlns="http://www.w3.org/2000/svg" width="66" height="20" viewBox="0 0 66 20" fill="none">
<path fill-rule="evenodd" clip-rule="evenodd" d="M18.0358 9.93733C18.4991 9.93733 18.8786 10.3137 18.8374 10.7751C18.6974 12.3461 18.1654 13.8617 17.2842 15.1804C16.2472 16.7324 14.7733 17.942 13.0489 18.6563C11.3244 19.3706 9.42687 19.5575 7.59621 19.1933C5.76554 18.8292 4.08397 17.9304 2.76414 16.6105C1.4443 15.2907 0.545482 13.6091 0.18134 11.7785C-0.182802 9.9478 0.00408906 8.05027 0.718379 6.32582C1.43267 4.60137 2.64228 3.12746 4.19424 2.09047C5.513 1.20931 7.02862 0.677249 8.59955 0.537248C9.06102 0.496121 9.43734 0.875569 9.43734 1.33887L9.43734 4.27494C9.43734 4.73823 9.81292 5.11381 10.2762 5.11381H13.2123C13.6756 5.11381 14.0512 4.73823 14.0512 4.27494V1.33887C14.0512 0.875577 14.4267 0.5 14.89 0.5H18.0358C18.4991 0.5 18.8747 0.875577 18.8747 1.33887V4.48466C18.8747 4.94795 18.4991 5.32353 18.0358 5.32353H15.0997C14.6364 5.32353 14.2609 5.69911 14.2609 6.16241V9.09846C14.2609 9.56176 14.6364 9.93734 15.0997 9.93734L18.0358 9.93733ZM10.2762 9.93734C9.81292 9.93734 9.43734 9.56176 9.43734 9.09846L9.43734 6.18185C9.43734 5.71855 9.0587 5.33522 8.60311 5.41934C7.99172 5.53224 7.40663 5.76862 6.88485 6.11726C6.12931 6.6221 5.54044 7.33964 5.19271 8.17915C4.84497 9.01866 4.75399 9.94243 4.93126 10.8336C5.10854 11.7249 5.54611 12.5435 6.18864 13.186C6.83117 13.8286 7.64981 14.2661 8.54103 14.4434C9.43225 14.6207 10.356 14.5297 11.1955 14.182C12.035 13.8342 12.7526 13.2454 13.2574 12.4898C13.6061 11.968 13.8424 11.383 13.9553 10.7716C14.0395 10.316 13.6561 9.93733 13.1928 9.93733L10.2762 9.93734Z" fill="#18181B"/>
<path d="M30.4782 15.8629C29.067 15.8629 27.8735 15.6227 26.8977 15.1423C25.9369 14.6469 25.2088 13.8963 24.7133 12.8904C24.2179 11.8846 23.9702 10.6085 23.9702 9.06221C23.9702 7.50089 24.2179 6.22482 24.7133 5.23398C25.2088 4.22813 25.9369 3.48501 26.8977 3.0046C27.8735 2.50918 29.067 2.26147 30.4782 2.26147C31.8744 2.26147 33.0529 2.50918 34.0137 3.0046C34.9895 3.48501 35.7251 4.22813 36.2205 5.23398C36.731 6.23983 36.9862 7.5159 36.9862 9.06221C36.9862 10.6085 36.731 11.8846 36.2205 12.8904C35.7251 13.8963 34.9895 14.6469 34.0137 15.1423C33.0529 15.6227 31.8744 15.8629 30.4782 15.8629ZM30.4782 13.9263C31.2889 13.9263 31.972 13.7687 32.5274 13.4534C33.0979 13.1231 33.5258 12.5977 33.811 11.8771C34.1113 11.1565 34.2614 10.2182 34.2614 9.06221C34.2614 7.89122 34.1113 6.95293 33.811 6.24734C33.5258 5.52673 33.0979 5.00879 32.5274 4.69353C31.972 4.36325 31.2889 4.19811 30.4782 4.19811C29.6675 4.19811 28.9769 4.36325 28.4065 4.69353C27.851 5.00879 27.4231 5.52673 27.1229 6.24734C26.8226 6.95293 26.6725 7.89122 26.6725 9.06221C26.6725 10.2182 26.8226 11.1565 27.1229 11.8771C27.4231 12.5977 27.851 13.1231 28.4065 13.4534C28.9769 13.7687 29.6675 13.9263 30.4782 13.9263Z" fill="#18181B"/>
<path d="M44.3683 9.5125L42.6793 9.39991L38.6259 2.53162H41.5534L44.7286 8.11633L46.4175 8.25144L50.7637 15.6151H47.8362L44.3683 9.5125ZM42.882 8.07129L44.7286 9.37739L41.1481 15.6151H38.2656L42.882 8.07129ZM44.3908 8.34151L47.656 2.53162H50.4934L46.2824 9.58006L44.3908 8.34151Z" fill="#18181B"/>
<path d="M58.9001 19.0099C57.8492 19.0099 56.9259 18.8898 56.1302 18.6496C55.3496 18.4244 54.704 18.0416 54.1936 17.5011C53.6982 16.9757 53.3754 16.2776 53.2253 15.4069H55.7024C55.8375 16.0824 56.1753 16.5628 56.7157 16.8481C57.2562 17.1333 57.9768 17.2759 58.8775 17.2759C59.7032 17.2759 60.3788 17.1859 60.9042 17.0057C61.4297 16.8256 61.8275 16.5178 62.0978 16.0824C62.368 15.6621 62.5031 15.0841 62.5031 14.3485V2.48406H65.1603V13.9431C65.1603 15.1141 64.9276 16.0674 64.4622 16.803C64.0119 17.5387 63.3288 18.0866 62.413 18.4469C61.4972 18.8222 60.3263 19.0099 58.9001 19.0099ZM57.4138 14.371C55.9426 14.371 54.8616 14.0332 54.1711 13.3576C53.4955 12.6821 53.1577 11.6687 53.1577 10.3176V2.48406H55.815V9.88972C55.815 10.7905 56.0251 11.451 56.4455 11.8714C56.8658 12.2767 57.5789 12.4794 58.5848 12.4794C59.3354 12.4794 59.996 12.3368 60.5665 12.0515C61.1369 11.7513 61.6023 11.2333 61.9626 10.4977C62.3229 9.7471 62.5106 8.71873 62.5256 7.41263H62.9084C62.8484 9.16911 62.5631 10.5653 62.0527 11.6012C61.5573 12.622 60.9118 13.3426 60.1161 13.763C59.3354 14.1683 58.4347 14.371 57.4138 14.371Z" fill="#18181B"/>
</svg>