<svg width="533" height="145" viewBox="0 0 533 145" fill="none" xmlns="http://www.w3.org/2000/svg">
<path d="M210.24 108.12C202.587 108.12 195.68 106.487 189.52 103.22C183.453 99.9533 178.647 95.2867 175.1 89.22C171.647 83.1534 169.92 76.06 169.92 67.94C169.92 59.9133 171.693 52.8667 175.24 46.8C178.787 40.64 183.64 35.9267 189.8 32.66C195.96 29.3933 202.867 27.76 210.52 27.76C218.173 27.76 225.08 29.3933 231.24 32.66C237.4 35.9267 242.253 40.64 245.8 46.8C249.347 52.8667 251.12 59.9133 251.12 67.94C251.12 75.9667 249.3 83.06 245.66 89.22C242.113 95.2867 237.213 99.9533 230.96 103.22C224.8 106.487 217.893 108.12 210.24 108.12ZM210.24 87.4C214.813 87.4 218.687 85.72 221.86 82.36C225.127 79 226.76 74.1933 226.76 67.94C226.76 61.6867 225.173 56.88 222 53.52C218.92 50.16 215.093 48.48 210.52 48.48C205.853 48.48 201.98 50.16 198.9 53.52C195.82 56.7867 194.28 61.5933 194.28 67.94C194.28 74.1933 195.773 79 198.76 82.36C201.84 85.72 205.667 87.4 210.24 87.4Z" fill="black"/>
<path d="M315.621 28.04C324.767 28.04 332.047 31.0267 337.461 37C342.967 42.88 345.721 51 345.721 61.36V107H321.921V64.58C321.921 59.3533 320.567 55.2933 317.861 52.4C315.154 49.5067 311.514 48.06 306.941 48.06C302.367 48.06 298.727 49.5067 296.021 52.4C293.314 55.2933 291.961 59.3533 291.961 64.58V107H268.021V28.88H291.961V39.24C294.387 35.7867 297.654 33.08 301.761 31.12C305.867 29.0667 310.487 28.04 315.621 28.04Z" fill="black"/>
<path d="M446.356 28.88L397.356 144.1H371.596L389.516 104.34L357.736 28.88H384.476L402.536 77.74L420.456 28.88H446.356Z" fill="black"/>
<path d="M505.414 107L490.434 85.3L477.834 107H451.934L477.694 67.1L451.234 28.88H478.114L493.094 50.44L505.694 28.88H531.594L505.414 68.22L532.294 107H505.414Z" fill="black"/>
<mask id="mask0_14_1699" style="mask-type:alpha" maskUnits="userSpaceOnUse" x="0" y="0" width="136" height="136">
<circle cx="68" cy="68" r="67.5" fill="url(#paint0_radial_14_1699)"/>
<circle cx="68" cy="68" r="67.5" fill="url(#paint1_radial_14_1699)"/>
<circle cx="68" cy="68" r="67.5" fill="url(#paint2_radial_14_1699)"/>
<circle cx="68" cy="68" r="67.5" stroke="url(#paint3_linear_14_1699)"/>
</mask>
<g mask="url(#mask0_14_1699)">
<circle cx="67.9999" cy="68" r="67.5" fill="url(#paint4_radial_14_1699)"/>
<circle cx="67.9999" cy="68" r="67.5" fill="url(#paint5_radial_14_1699)"/>
<circle cx="67.9999" cy="68" r="67.5" fill="url(#paint6_radial_14_1699)"/>
<circle cx="67.9999" cy="68" r="67.5" stroke="url(#paint7_linear_14_1699)"/>
<g style="mix-blend-mode:plus-lighter" filter="url(#filter0_f_14_1699)">
<path d="M128.5 39.5C127.705 41.0694 120.583 26.6327 96.4999 14C71.4999 0.886556 53.2047 4.06943 53.9999 2.50003C54.7951 0.930625 78.9999 -2.45206 99.3794 8.31671C123 20.798 129.295 37.9306 128.5 39.5Z" fill="#304374"/>
</g>
<g style="mix-blend-mode:plus-lighter" filter="url(#filter1_f_14_1699)">
<path d="M118.833 24.8295C118.197 26.0848 109.064 17.7439 96.6879 11.129C83.8407 4.26239 74.4647 2.05651 75.1007 0.801262C75.7367 -0.453989 89.2255 -0.00323984 99.6892 5.65283C111.817 12.2084 119.469 23.5743 118.833 24.8295Z" fill="#676767"/>
</g>
<g style="mix-blend-mode:plus-lighter" filter="url(#filter2_f_14_1699)">
<path d="M38.2029 9.05189C38.8257 9.5409 29.6619 14.564 18.9324 26.9471C9.29852 38.0657 4.30525 49.6323 3.68242 49.1433C3.05959 48.6543 6.57005 35.27 15.3016 24.0591C24.8863 11.7528 37.58 8.56289 38.2029 9.05189Z" fill="#20253D"/>
</g>
<g style="mix-blend-mode:plus-lighter" filter="url(#filter3_f_14_1699)">
<path d="M79.5 134C80.3797 132.476 58.9998 130.762 37.9999 117.5C18.4997 105.185 3.87964 81.9764 2.99996 83.5C2.12029 85.0237 10.9993 113.415 32.3139 126.019C53.6286 138.622 78.6203 135.524 79.5 134Z" fill="#212429" fill-opacity="0.6"/>
</g>
<g style="mix-blend-mode:plus-lighter" filter="url(#filter4_f_14_1699)">
<path d="M58.4956 135.729C58.9354 134.968 46.56 129.532 34.5497 122.029C23.3972 115.061 11.4443 105.009 11.0045 105.771C10.5647 106.532 19.7706 118.63 31.9348 125.802C44.099 132.973 58.0558 136.491 58.4956 135.729Z" fill="#2240AA"/>
<path d="M57.2155 135.25C56.9803 135.104 56.7016 134.94 56.3807 134.757C55.212 134.09 53.5454 133.212 51.5269 132.149C51.3403 132.051 51.1508 131.951 50.9584 131.849C46.4182 129.457 40.3072 126.215 34.2848 122.453C28.6893 118.957 22.8979 114.691 18.4621 111.403C18.2636 111.256 18.0679 111.111 17.875 110.968C15.9088 109.51 14.2434 108.275 13.0151 107.42C12.6045 107.134 12.2484 106.895 11.9501 106.706C12.1613 107.043 12.4394 107.45 12.7821 107.918C13.7594 109.252 15.2356 111.044 17.1078 113.04C20.8539 117.034 26.16 121.816 32.1887 125.371C38.233 128.934 44.7291 131.593 49.7693 133.266C52.2893 134.102 54.4372 134.689 55.9754 135.019C56.4548 135.122 56.8699 135.199 57.2155 135.25Z" stroke="url(#paint8_linear_14_1699)"/>
</g>
<g style="mix-blend-mode:plus-lighter" filter="url(#filter5_f_14_1699)">
<ellipse cx="32.2742" cy="125.718" rx="13.3581" ry="3.00512" transform="rotate(32.09 32.2742 125.718)" fill="#3C3C3C"/>
</g>
</g>
<defs>
<filter id="filter0_f_14_1699" x="45.9749" y="-7.26556" width="90.5902" height="54.8832" filterUnits="userSpaceOnUse" color-interpolation-filters="sRGB">
<feFlood flood-opacity="0" result="BackgroundImageFix"/>
<feBlend mode="normal" in="SourceGraphic" in2="BackgroundImageFix" result="shape"/>
<feGaussianBlur stdDeviation="4" result="effect1_foregroundBlur_14_1699"/>
</filter>
<filter id="filter1_f_14_1699" x="71.0701" y="-3.77527" width="51.7997" height="32.7313" filterUnits="userSpaceOnUse" color-interpolation-filters="sRGB">
<feFlood flood-opacity="0" result="BackgroundImageFix"/>
<feBlend mode="normal" in="SourceGraphic" in2="BackgroundImageFix" result="shape"/>
<feGaussianBlur stdDeviation="2" result="effect1_foregroundBlur_14_1699"/>
</filter>
<filter id="filter2_f_14_1699" x="-0.387512" y="5.00464" width="42.6204" height="48.1536" filterUnits="userSpaceOnUse" color-interpolation-filters="sRGB">
<feFlood flood-opacity="0" result="BackgroundImageFix"/>
<feBlend mode="normal" in="SourceGraphic" in2="BackgroundImageFix" result="shape"/>
<feGaussianBlur stdDeviation="2" result="effect1_foregroundBlur_14_1699"/>
</filter>
<filter id="filter3_f_14_1699" x="-5.05927" y="75.4286" width="92.5855" height="68.05" filterUnits="userSpaceOnUse" color-interpolation-filters="sRGB">
<feFlood flood-opacity="0" result="BackgroundImageFix"/>
<feBlend mode="normal" in="SourceGraphic" in2="BackgroundImageFix" result="shape"/>
<feGaussianBlur stdDeviation="4" result="effect1_foregroundBlur_14_1699"/>
</filter>
<filter id="filter4_f_14_1699" x="2.9894" y="97.7297" width="63.5176" height="46.1017" filterUnits="userSpaceOnUse" color-interpolation-filters="sRGB">
<feFlood flood-opacity="0" result="BackgroundImageFix"/>
<feBlend mode="normal" in="SourceGraphic" in2="BackgroundImageFix" result="shape"/>
<feGaussianBlur stdDeviation="4" result="effect1_foregroundBlur_14_1699"/>
</filter>
<filter id="filter5_f_14_1699" x="16.8436" y="114.177" width="30.8613" height="23.0829" filterUnits="userSpaceOnUse" color-interpolation-filters="sRGB">
<feFlood flood-opacity="0" result="BackgroundImageFix"/>
<feBlend mode="normal" in="SourceGraphic" in2="BackgroundImageFix" result="shape"/>
<feGaussianBlur stdDeviation="2" result="effect1_foregroundBlur_14_1699"/>
</filter>
<radialGradient id="paint0_radial_14_1699" cx="0" cy="0" r="1" gradientUnits="userSpaceOnUse" gradientTransform="translate(30 127) rotate(-55.5873) scale(153.942 104.977)">
<stop offset="0.606636"/>
<stop offset="1" stop-color="#9164EF"/>
</radialGradient>
<radialGradient id="paint1_radial_14_1699" cx="0" cy="0" r="1" gradientUnits="userSpaceOnUse" gradientTransform="translate(94 31) rotate(127.295) scale(121.303 108.73)">
<stop offset="0.505078" stop-color="#1E155A" stop-opacity="0.2"/>
<stop offset="0.960704" stop-color="#552DAA" stop-opacity="0.42"/>
</radialGradient>
<radialGradient id="paint2_radial_14_1699" cx="0" cy="0" r="1" gradientUnits="userSpaceOnUse" gradientTransform="translate(68 68) rotate(-90) scale(68)">
<stop offset="0.756288"/>
<stop offset="1" stop-opacity="0"/>
</radialGradient>
<linearGradient id="paint3_linear_14_1699" x1="108.5" y1="6.5" x2="30" y2="123" gradientUnits="userSpaceOnUse">
<stop stop-color="white"/>
<stop offset="0.185" stop-color="#444EAB"/>
<stop offset="0.815" stop-color="#131725"/>
<stop offset="1" stop-color="#2E447C" stop-opacity="0.75"/>
</linearGradient>
<radialGradient id="paint4_radial_14_1699" cx="0" cy="0" r="1" gradientUnits="userSpaceOnUse" gradientTransform="translate(29.9999 127) rotate(-55.5873) scale(153.942 104.977)">
<stop offset="0.606636"/>
<stop offset="1" stop-color="#6E76A5"/>
</radialGradient>
<radialGradient id="paint5_radial_14_1699" cx="0" cy="0" r="1" gradientUnits="userSpaceOnUse" gradientTransform="translate(93.9999 31) rotate(127.295) scale(121.303 108.73)">
<stop offset="0.505078" stop-color="#15325D" stop-opacity="0.2"/>
<stop offset="0.960704" stop-color="#101424" stop-opacity="0.42"/>
</radialGradient>
<radialGradient id="paint6_radial_14_1699" cx="0" cy="0" r="1" gradientUnits="userSpaceOnUse" gradientTransform="translate(67.9999 68) rotate(-90) scale(68)">
<stop offset="0.756288"/>
<stop offset="1" stop-opacity="0"/>
</radialGradient>
<linearGradient id="paint7_linear_14_1699" x1="108.5" y1="6.5" x2="29.9999" y2="123" gradientUnits="userSpaceOnUse">
<stop stop-color="white"/>
<stop offset="0.185" stop-color="#444A77"/>
<stop offset="0.815" stop-color="#0F1118"/>
<stop offset="1" stop-color="#293248" stop-opacity="0.75"/>
</linearGradient>
<linearGradient id="paint8_linear_14_1699" x1="46.496" y1="133.822" x2="50.2198" y2="125.893" gradientUnits="userSpaceOnUse">
<stop stop-color="white"/>
<stop offset="0.185" stop-color="#444EAB"/>
<stop offset="0.815" stop-color="#131725"/>
<stop offset="1" stop-color="#2E447C" stop-opacity="0.75"/>
</linearGradient>
</defs>
</svg>
