<svg width="80" height="80" viewBox="0 0 80 80" fill="none" xmlns="http://www.w3.org/2000/svg">
<path d="M68.2228 52.9372C68.2193 50.9503 66.9158 49.6151 65.1474 48.981V48.988C65.1474 48.988 53.8358 44.4987 45.6975 42.0268C41.664 40.8017 38.985 40.906 34.9034 41.9599C26.6204 44.0985 14.4812 49.3262 14.4812 49.3262C12.9065 49.8969 12.2054 51.7007 12.2125 53.1662L12.2582 63.1078C12.2653 64.5451 13.5829 66.0001 15.2069 66.0001L65.1333 65.9895C67.0356 65.9895 68.2369 64.3196 68.2369 62.7202L68.2228 52.9372Z" fill="black"/>
<path d="M68.2198 39.6525C68.2198 40.498 67.9062 41.583 67.487 41.9353C67.0149 42.3298 65.5847 42.7632 64.9541 42.5342L46.082 35.6645C44.4755 35.0798 43.2284 33.9207 43.2319 32.0818L43.2636 15.1367C43.2636 14.2102 45.0312 13.6812 46.0503 14.2102L63.7211 20.4844C66.5464 21.1855 68.248 23.567 68.2444 26.4346L68.2198 39.6489V39.6525Z" fill="black"/>
<path d="M15.8307 42.4391C15.0803 42.7103 13.805 42.4532 13.3224 42.1713C12.7411 41.8331 12.2162 40.6812 12.2197 39.8709L12.2691 26.0295C12.2761 24.0566 13.717 21.6435 15.6581 20.9495L34.5795 14.1538C35.8259 13.6811 37.0266 14.4816 37.0949 15.1508L37.1301 32.1029C37.1054 33.5685 36.2317 35.0093 34.7944 35.5342L15.8342 42.4391H15.8307Z" fill="black"/>
</svg>
