<svg width="80" height="80" viewBox="0 0 80 80" fill="none" xmlns="http://www.w3.org/2000/svg">
<rect width="80" height="80" rx="12" fill="black"/>
<path fill-rule="evenodd" clip-rule="evenodd" d="M59.4446 40.1227C60.5281 40.1227 61.3878 40.9024 61.3878 42.0838C61.3878 45.4012 60.5498 48.8856 58.1225 52.5185C55.6951 56.1513 52.245 58.9828 48.2084 60.6548C44.1718 62.3268 39.73 62.7642 35.4448 61.9119C31.1596 61.0595 27.2234 58.9555 24.1339 55.8661C21.0445 52.7766 18.9405 48.8404 18.0881 44.5551C17.2357 40.2699 17.6732 35.8282 19.3452 31.7916C21.0172 27.755 23.8487 24.3049 27.4815 21.8775C31.1143 19.4501 34.4773 18.7559 37.1298 18.5227C38.9153 18.3658 39.6328 19.372 39.6328 20.6091L39.6328 27.0523C39.6328 28.0416 40.3682 28.9545 41.5729 28.9545L48.5909 28.9545C49.8182 28.9545 50.5545 28.0416 50.5545 27.1136V20.4369C50.5545 19.3524 51.2909 18.5116 52.5182 18.5116H59.8818C61.1091 18.5116 61.8455 19.3323 61.8455 20.4369V27.8895C61.8455 28.974 60.9864 29.6805 59.8818 29.6805H52.5375C51.6591 29.6805 50.7491 30.4473 50.7491 31.5318V38.1591C50.7491 39.2636 51.5283 40.1227 52.5375 40.1227H59.4446ZM41.6254 40.1227C40.4296 40.1227 39.6328 39.2023 39.6328 38.0363V32.0227C39.6328 30.7954 38.7727 29.9582 37.5455 30.0591C36.5835 30.1382 35.4755 30.2709 33.7797 31.2864C31.9379 32.3892 30.6327 34.1647 29.8187 36.1299C29.0047 38.095 28.7918 40.2574 29.2067 42.3435C29.6217 44.4297 30.646 46.3459 32.15 47.85C33.654 49.354 35.5703 50.3783 37.6565 50.7933C39.7426 51.2082 41.905 50.9952 43.8701 50.1813C45.8352 49.3673 47.5149 47.9889 48.6966 46.2203C49.4506 45.0918 49.9655 43.6043 49.9655 42.2091C49.9655 41.0743 49.344 40.1227 48.1772 40.1227H41.6254Z" fill="white"/>
</svg>
