<svg xmlns="http://www.w3.org/2000/svg" width="81" height="21" viewBox="0 0 81 21" fill="none">
  <path d="M30.7844 16.6081C29.3047 16.6081 28.0532 16.3563 27.03 15.8525C26.0226 15.3331 25.2591 14.546 24.7397 13.4913C24.2202 12.4366 23.9605 11.0986 23.9605 9.47725C23.9605 7.84013 24.2202 6.50211 24.7397 5.46317C25.2591 4.40849 26.0226 3.62929 27.03 3.12557C28.0532 2.6061 29.3047 2.34636 30.7844 2.34636C32.2483 2.34636 33.484 2.6061 34.4915 3.12557C35.5147 3.62929 36.286 4.40849 36.8055 5.46317C37.3407 6.51785 37.6083 7.85588 37.6083 9.47725C37.6083 11.0986 37.3407 12.4366 36.8055 13.4913C36.286 14.546 35.5147 15.3331 34.4915 15.8525C33.484 16.3563 32.2483 16.6081 30.7844 16.6081ZM30.7844 14.5775C31.6344 14.5775 32.3507 14.4122 32.9331 14.0816C33.5313 13.7353 33.9799 13.1844 34.279 12.4288C34.5938 11.6732 34.7512 10.6893 34.7512 9.47725C34.7512 8.24941 34.5938 7.26557 34.279 6.52572C33.9799 5.77013 33.5313 5.22705 32.9331 4.89648C32.3507 4.55017 31.6344 4.37701 30.7844 4.37701C29.9343 4.37701 29.2102 4.55017 28.6121 4.89648C28.0296 5.22705 27.581 5.77013 27.2662 6.52572C26.9513 7.26557 26.7939 8.24941 26.7939 9.47725C26.7939 10.6893 26.9513 11.6732 27.2662 12.4288C27.581 13.1844 28.0296 13.7353 28.6121 14.0816C29.2102 14.4122 29.9343 14.5775 30.7844 14.5775Z" fill="white"/>
  <path d="M39.1887 2.62971H41.5971L41.7388 8.29664H41.9513V16.3484H39.1887V2.62971ZM49.2239 7.23409C49.2239 6.57295 49.1215 6.03774 48.9169 5.62846C48.7123 5.21918 48.3896 4.92009 47.9488 4.73119C47.508 4.5423 46.9256 4.44785 46.2015 4.44785C45.3042 4.44785 44.5565 4.61313 43.9583 4.9437C43.3602 5.25853 42.8879 5.81736 42.5416 6.62017C42.1953 7.42299 41.9985 8.53276 41.9513 9.94949H41.5499C41.5971 8.06051 41.8568 6.5572 42.3291 5.43956C42.8013 4.32192 43.4546 3.52697 44.2889 3.05473C45.1232 2.58248 46.1385 2.34636 47.3349 2.34636C48.909 2.34636 50.0818 2.73203 50.8531 3.50336C51.6244 4.25895 52.0101 5.36085 52.0101 6.80907V16.3484H49.2239V7.23409Z" fill="white"/>
  <path d="M59.8735 21C58.7716 21 57.8035 20.8741 56.9692 20.6222C56.1507 20.3861 55.4738 19.9847 54.9386 19.418C54.4191 18.867 54.0806 18.1351 53.9232 17.222H56.5206C56.6622 17.9304 57.0164 18.4341 57.5831 18.7332C58.1498 19.0323 58.9054 19.1819 59.8499 19.1819C60.7157 19.1819 61.424 19.0874 61.975 18.8985C62.5259 18.7096 62.9431 18.3869 63.2264 17.9304C63.5098 17.4897 63.6515 16.8836 63.6515 16.1123V2.62971H66.4377V15.6873C66.4377 16.9151 66.1937 17.9147 65.7057 18.686C65.2335 19.4573 64.5172 20.0319 63.557 20.4097C62.5968 20.8032 61.3689 21 59.8735 21ZM58.3151 16.1359C56.7724 16.1359 55.639 15.7817 54.9149 15.0733C54.2066 14.365 53.8524 13.3024 53.8524 11.8857V2.62971H56.6386V11.4371C56.6386 12.3815 56.859 13.0742 57.2998 13.5149C57.7405 13.94 58.4883 14.1525 59.5429 14.1525C60.33 14.1525 61.0226 14.0029 61.6208 13.7038C62.219 13.389 62.707 12.8459 63.0848 12.0746C63.4626 11.2875 63.6593 10.2092 63.6751 8.83972H64.0765C64.0135 10.6815 63.7144 12.1454 63.1792 13.2316C62.6597 14.302 61.9829 15.0576 61.1486 15.4984C60.33 15.9234 59.3855 16.1359 58.3151 16.1359Z" fill="white"/>
  <path d="M73.908 9.94949L72.1371 9.83143L67.8869 2.62971H70.9565L74.2858 8.48553L76.0567 8.62721L80.6139 16.3484H77.5443L73.908 9.94949ZM72.3496 8.43831L74.2858 9.80782L70.5315 16.3484H67.5091L72.3496 8.43831ZM73.9316 8.72166L77.3554 2.62971H80.3305L75.915 10.0203L73.9316 8.72166Z" fill="white"/>
  <path fill-rule="evenodd" clip-rule="evenodd" d="M18.126 11.4845C18.5916 11.4845 18.9729 11.8627 18.9316 12.3265C18.7909 13.9053 18.2562 15.4285 17.3706 16.7538C16.3285 18.3136 14.8472 19.5292 13.1141 20.2471C11.381 20.9649 9.47401 21.1528 7.63419 20.7868C5.79437 20.4208 4.10439 19.5175 2.77796 18.1911C1.45152 16.8647 0.548209 15.1747 0.182247 13.3349C-0.183716 11.495 0.00410952 9.58802 0.721971 7.85495C1.43983 6.12188 2.65549 4.6406 4.21521 3.59842C5.54056 2.71285 7.06377 2.17814 8.64255 2.03743C9.10632 1.9961 9.48453 2.37745 9.48453 2.84306L9.48453 5.79381C9.48453 6.25942 9.86198 6.63688 10.3276 6.63688H13.2783C13.744 6.63688 14.1214 6.25942 14.1214 5.79381V2.84307C14.1214 2.37745 14.4989 2 14.9645 2H18.126C18.5916 2 18.9691 2.37745 18.9691 2.84307V6.00458C18.9691 6.47019 18.5916 6.84765 18.126 6.84765H15.1752C14.7096 6.84765 14.3322 7.2251 14.3322 7.69072V10.6415C14.3322 11.1071 14.7096 11.4845 15.1752 11.4845L18.126 11.4845ZM10.3276 11.4845C9.86199 11.4845 9.48453 11.1071 9.48453 10.6415L9.48453 7.71026C9.48453 7.24464 9.104 6.85939 8.64612 6.94394C8.03168 7.0574 7.44367 7.29496 6.91928 7.64535C6.15996 8.15271 5.56815 8.87384 5.21867 9.71754C4.8692 10.5612 4.77776 11.4896 4.95592 12.3853C5.13408 13.281 5.57384 14.1037 6.21958 14.7495C6.86533 15.3952 7.68806 15.835 8.58373 16.0131C9.47941 16.1913 10.4078 16.0999 11.2515 15.7504C12.0952 15.4009 12.8163 14.8091 13.3237 14.0498C13.6741 13.5254 13.9116 12.9374 14.0251 12.3229C14.1097 11.8651 13.7244 11.4845 13.2588 11.4845L10.3276 11.4845Z" fill="white"/>
</svg>