<svg xmlns="http://www.w3.org/2000/svg" width="81" height="19" viewBox="0 0 81 19" fill="none">
  <path d="M30.7844 14.6081C29.3047 14.6081 28.0532 14.3563 27.03 13.8525C26.0226 13.3331 25.2591 12.546 24.7397 11.4913C24.2202 10.4366 23.9605 9.09862 23.9605 7.47725C23.9605 5.84013 24.2202 4.50211 24.7397 3.46317C25.2591 2.40849 26.0226 1.62929 27.03 1.12557C28.0532 0.606096 29.3047 0.346362 30.7844 0.346362C32.2483 0.346362 33.484 0.606096 34.4915 1.12557C35.5147 1.62929 36.286 2.40849 36.8055 3.46317C37.3407 4.51785 37.6083 5.85588 37.6083 7.47725C37.6083 9.09862 37.3407 10.4366 36.8055 11.4913C36.286 12.546 35.5147 13.3331 34.4915 13.8525C33.484 14.3563 32.2483 14.6081 30.7844 14.6081ZM30.7844 12.5775C31.6344 12.5775 32.3507 12.4122 32.9331 12.0816C33.5313 11.7353 33.9799 11.1844 34.279 10.4288C34.5938 9.67318 34.7512 8.68934 34.7512 7.47725C34.7512 6.24941 34.5938 5.26557 34.279 4.52572C33.9799 3.77013 33.5313 3.22705 32.9331 2.89648C32.3507 2.55017 31.6344 2.37701 30.7844 2.37701C29.9343 2.37701 29.2102 2.55017 28.6121 2.89648C28.0296 3.22705 27.581 3.77013 27.2662 4.52572C26.9513 5.26557 26.7939 6.24941 26.7939 7.47725C26.7939 8.68934 26.9513 9.67318 27.2662 10.4288C27.581 11.1844 28.0296 11.7353 28.6121 12.0816C29.2102 12.4122 29.9343 12.5775 30.7844 12.5775Z" fill="#343434"/>
  <path d="M39.1887 0.629709H41.5971L41.7388 6.29664H41.9513V14.3484H39.1887V0.629709ZM49.2239 5.23409C49.2239 4.57295 49.1215 4.03774 48.9169 3.62846C48.7123 3.21918 48.3896 2.92009 47.9488 2.73119C47.508 2.5423 46.9256 2.44785 46.2015 2.44785C45.3042 2.44785 44.5565 2.61313 43.9583 2.9437C43.3602 3.25853 42.8879 3.81736 42.5416 4.62017C42.1953 5.42299 41.9985 6.53276 41.9513 7.94949H41.5499C41.5971 6.06051 41.8568 4.5572 42.3291 3.43956C42.8013 2.32192 43.4546 1.52697 44.2889 1.05473C45.1232 0.582484 46.1385 0.346362 47.3349 0.346362C48.909 0.346362 50.0818 0.732028 50.8531 1.50336C51.6244 2.25895 52.0101 3.36085 52.0101 4.80907V14.3484H49.2239V5.23409Z" fill="#343434"/>
  <path d="M59.8735 19C58.7716 19 57.8035 18.8741 56.9692 18.6222C56.1507 18.3861 55.4738 17.9847 54.9386 17.418C54.4191 16.867 54.0806 16.1351 53.9232 15.222H56.5206C56.6622 15.9304 57.0164 16.4341 57.5831 16.7332C58.1498 17.0323 58.9054 17.1819 59.8499 17.1819C60.7157 17.1819 61.424 17.0874 61.975 16.8985C62.5259 16.7096 62.9431 16.3869 63.2264 15.9304C63.5098 15.4897 63.6515 14.8836 63.6515 14.1123V0.629709H66.4377V13.6873C66.4377 14.9151 66.1937 15.9147 65.7057 16.686C65.2335 17.4573 64.5172 18.0319 63.557 18.4097C62.5968 18.8032 61.3689 19 59.8735 19ZM58.3151 14.1359C56.7724 14.1359 55.639 13.7817 54.9149 13.0733C54.2066 12.365 53.8524 11.3024 53.8524 9.88569V0.629709H56.6386V9.43706C56.6386 10.3815 56.859 11.0742 57.2998 11.5149C57.7405 11.94 58.4883 12.1525 59.5429 12.1525C60.33 12.1525 61.0226 12.0029 61.6208 11.7038C62.219 11.389 62.707 10.8459 63.0848 10.0746C63.4626 9.28751 63.6593 8.20922 63.6751 6.83972H64.0765C64.0135 8.68147 63.7144 10.1454 63.1792 11.2316C62.6597 12.302 61.9829 13.0576 61.1486 13.4984C60.33 13.9234 59.3855 14.1359 58.3151 14.1359Z" fill="#343434"/>
  <path d="M73.908 7.94949L72.1371 7.83143L67.8869 0.629709H70.9565L74.2858 6.48553L76.0567 6.62721L80.6139 14.3484H77.5443L73.908 7.94949ZM72.3496 6.43831L74.2858 7.80782L70.5315 14.3484H67.5091L72.3496 6.43831ZM73.9316 6.72166L77.3554 0.629709H80.3305L75.915 8.02033L73.9316 6.72166Z" fill="#343434"/>
  <path fill-rule="evenodd" clip-rule="evenodd" d="M18.126 9.48452C18.5916 9.48452 18.9729 9.86273 18.9316 10.3265C18.7909 11.9053 18.2562 13.4285 17.3706 14.7538C16.3285 16.3136 14.8472 17.5292 13.1141 18.2471C11.381 18.9649 9.47401 19.1528 7.63419 18.7868C5.79437 18.4208 4.10439 17.5175 2.77796 16.1911C1.45152 14.8647 0.548209 13.1747 0.182247 11.3349C-0.183716 9.49504 0.00410952 7.58802 0.721971 5.85495C1.43983 4.12188 2.65549 2.6406 4.21521 1.59842C5.54056 0.712852 7.06377 0.178136 8.64255 0.0374338C9.10632 -0.00389815 9.48453 0.377447 9.48453 0.843061L9.48453 3.79381C9.48453 4.25942 9.86198 4.63688 10.3276 4.63688H13.2783C13.744 4.63688 14.1214 4.25942 14.1214 3.79381V0.843069C14.1214 0.377455 14.4989 0 14.9645 0H18.126C18.5916 0 18.9691 0.377455 18.9691 0.843069V4.00458C18.9691 4.47019 18.5916 4.84765 18.126 4.84765H15.1752C14.7096 4.84765 14.3322 5.2251 14.3322 5.69072V8.64146C14.3322 9.10707 14.7096 9.48453 15.1752 9.48452L18.126 9.48452ZM10.3276 9.48452C9.86199 9.48453 9.48453 9.10707 9.48453 8.64146L9.48453 5.71026C9.48453 5.24464 9.104 4.85939 8.64612 4.94394C8.03168 5.0574 7.44367 5.29496 6.91928 5.64535C6.15996 6.15271 5.56815 6.87384 5.21867 7.71754C4.8692 8.56125 4.77776 9.48964 4.95592 10.3853C5.13408 11.281 5.57384 12.1037 6.21958 12.7495C6.86533 13.3952 7.68806 13.835 8.58373 14.0131C9.47941 14.1913 10.4078 14.0999 11.2515 13.7504C12.0952 13.4009 12.8163 12.8091 13.3237 12.0498C13.6741 11.5254 13.9116 10.9374 14.0251 10.3229C14.1097 9.86505 13.7244 9.48452 13.2588 9.48452L10.3276 9.48452Z" fill="#343434"/>
</svg>