<svg width="24" height="24" viewBox="0 0 24 24" fill="none" xmlns="http://www.w3.org/2000/svg">
<path fill-rule="evenodd" clip-rule="evenodd" d="M20.8339 12.1092C21.3159 12.1092 21.7107 12.5007 21.6679 12.9808C21.5223 14.6151 20.9687 16.1919 20.052 17.5639C18.9732 19.1785 17.4398 20.4369 15.6458 21.18C13.8517 21.9231 11.8776 22.1176 9.97306 21.7387C8.06852 21.3599 6.31909 20.4248 4.946 19.0517C3.5729 17.6786 2.63781 15.9292 2.25897 14.0246C1.88013 12.1201 2.07457 10.146 2.81768 8.35193C3.5608 6.5579 4.81922 5.02451 6.43381 3.94567C7.80578 3.02894 9.38257 2.47542 11.0169 2.32977C11.497 2.28698 11.8885 2.68174 11.8885 3.16373L11.8885 6.21829C11.8885 6.70028 12.2792 7.09102 12.7612 7.09102H15.8158C16.2978 7.09102 16.6885 6.70028 16.6885 6.21829V3.16374C16.6885 2.68175 17.0792 2.29102 17.5612 2.29102H20.8339C21.3159 2.29102 21.7067 2.68175 21.7067 3.16374V6.43647C21.7067 6.91847 21.3159 7.3092 20.8339 7.3092H17.7794C17.2974 7.3092 16.9067 7.69993 16.9067 8.18193V11.2365C16.9067 11.7185 17.2974 12.1092 17.7794 12.1092L20.8339 12.1092ZM12.7612 12.1092C12.2792 12.1092 11.8885 11.7185 11.8885 11.2365L11.8885 8.20215C11.8885 7.72016 11.4946 7.32136 11.0206 7.40888C10.3845 7.52633 9.77584 7.77225 9.233 8.13496C8.44697 8.66017 7.83434 9.40667 7.47257 10.2801C7.1108 11.1534 7.01615 12.1145 7.20057 13.0417C7.385 13.9689 7.84023 14.8205 8.50869 15.489C9.17715 16.1575 10.0288 16.6127 10.956 16.7971C11.8832 16.9815 12.8442 16.8869 13.7176 16.5251C14.591 16.1634 15.3375 15.5507 15.8627 14.7647C16.2254 14.2219 16.4714 13.6132 16.5888 12.9771C16.6763 12.5031 16.2775 12.1092 15.7955 12.1092L12.7612 12.1092Z" fill="white"/>
</svg>
