<svg xmlns="http://www.w3.org/2000/svg" width="81" height="22" viewBox="0 0 81 22" fill="none">
    <path
        d="M30.7844 17.108C29.3047 17.108 28.0532 16.8561 27.03 16.3524C26.0226 15.8329 25.2591 15.0458 24.7397 13.9911C24.2202 12.9365 23.9604 11.5984 23.9604 9.97708C23.9604 8.33996 24.2202 7.00194 24.7397 5.963C25.2591 4.90832 26.0226 4.12912 27.03 3.6254C28.0532 3.10593 29.3047 2.84619 30.7844 2.84619C32.2483 2.84619 33.484 3.10593 34.4915 3.6254C35.5147 4.12912 36.286 4.90832 36.8055 5.963C37.3407 7.01768 37.6083 8.35571 37.6083 9.97708C37.6083 11.5984 37.3407 12.9365 36.8055 13.9911C36.286 15.0458 35.5147 15.8329 34.4915 16.3524C33.484 16.8561 32.2483 17.108 30.7844 17.108ZM30.7844 15.0773C31.6344 15.0773 32.3507 14.912 32.9331 14.5815C33.5313 14.2351 33.9799 13.6842 34.279 12.9286C34.5938 12.173 34.7512 11.1892 34.7512 9.97708C34.7512 8.74924 34.5938 7.7654 34.279 7.02555C33.9799 6.26996 33.5313 5.72688 32.9331 5.39631C32.3507 5.05 31.6344 4.87684 30.7844 4.87684C29.9343 4.87684 29.2102 5.05 28.6121 5.39631C28.0296 5.72688 27.581 6.26996 27.2662 7.02555C26.9513 7.7654 26.7939 8.74924 26.7939 9.97708C26.7939 11.1892 26.9513 12.173 27.2662 12.9286C27.581 13.6842 28.0296 14.2351 28.6121 14.5815C29.2102 14.912 29.9343 15.0773 30.7844 15.0773Z"
        fill="#18181B" />
    <path
        d="M39.1887 3.12954H41.5971L41.7388 8.79647H41.9513V16.8482H39.1887V3.12954ZM49.2238 7.73392C49.2238 7.07278 49.1215 6.53757 48.9169 6.12829C48.7122 5.71901 48.3895 5.41992 47.9488 5.23102C47.508 5.04213 46.9256 4.94768 46.2015 4.94768C45.3042 4.94768 44.5565 5.11296 43.9583 5.44353C43.3601 5.75836 42.8879 6.31719 42.5416 7.12C42.1953 7.92281 41.9985 9.03259 41.9513 10.4493H41.5499C41.5971 8.56034 41.8568 7.05703 42.3291 5.93939C42.8013 4.82175 43.4546 4.0268 44.2889 3.55456C45.1232 3.08231 46.1385 2.84619 47.3349 2.84619C48.909 2.84619 50.0818 3.23186 50.8531 4.00319C51.6244 4.75878 52.0101 5.86068 52.0101 7.3089V16.8482H49.2238V7.73392Z"
        fill="#18181B" />
    <path
        d="M59.8735 21.4998C58.7716 21.4998 57.8035 21.3739 56.9692 21.122C56.1506 20.8859 55.4738 20.4845 54.9385 19.9178C54.4191 19.3669 54.0806 18.6349 53.9232 17.7219H56.5206C56.6622 18.4302 57.0164 18.934 57.5831 19.2331C58.1498 19.5321 58.9054 19.6817 59.8499 19.6817C60.7157 19.6817 61.424 19.5872 61.975 19.3983C62.5259 19.2094 62.9431 18.8867 63.2264 18.4302C63.5098 17.9895 63.6515 17.3834 63.6515 16.6121V3.12954H66.4377V16.1871C66.4377 17.4149 66.1937 18.4145 65.7057 19.1858C65.2335 19.9572 64.5172 20.5317 63.557 20.9095C62.5968 21.3031 61.3689 21.4998 59.8735 21.4998ZM58.3151 16.6357C56.7724 16.6357 55.639 16.2815 54.9149 15.5732C54.2066 14.8648 53.8524 13.8023 53.8524 12.3855V3.12954H56.6386V11.9369C56.6386 12.8814 56.859 13.574 57.2998 14.0148C57.7405 14.4398 58.4882 14.6523 59.5429 14.6523C60.33 14.6523 61.0226 14.5027 61.6208 14.2037C62.219 13.8888 62.707 13.3458 63.0848 12.5744C63.4626 11.7873 63.6593 10.7091 63.6751 9.33955H64.0765C64.0135 11.1813 63.7144 12.6453 63.1792 13.7314C62.6597 14.8018 61.9828 15.5574 61.1486 15.9982C60.33 16.4232 59.3855 16.6357 58.3151 16.6357Z"
        fill="#18181B" />
    <path
        d="M73.908 10.4493L72.1371 10.3313L67.8869 3.12954H70.9565L74.2858 8.98536L76.0567 9.12704L80.6139 16.8482H77.5443L73.908 10.4493ZM72.3496 8.93814L74.2858 10.3076L70.5315 16.8482H67.5091L72.3496 8.93814ZM73.9316 9.22149L77.3554 3.12954H80.3305L75.915 10.5202L73.9316 9.22149Z"
        fill="#18181B" />
    <path fill-rule="evenodd" clip-rule="evenodd"
        d="M18.126 11.9845C18.5916 11.9845 18.9729 12.3627 18.9316 12.8265C18.7909 14.4053 18.2562 15.9285 17.3706 17.2538C16.3285 18.8136 14.8472 20.0292 13.1141 20.7471C11.381 21.4649 9.47401 21.6528 7.63419 21.2868C5.79437 20.9208 4.10439 20.0175 2.77796 18.6911C1.45152 17.3647 0.548209 15.6747 0.182247 13.8349C-0.183716 11.995 0.0041095 10.088 0.721971 8.35495C1.43983 6.62188 2.65549 5.1406 4.21521 4.09842C5.54056 3.21285 7.06377 2.67814 8.64255 2.53743C9.10632 2.4961 9.48453 2.87745 9.48453 3.34306L9.48453 6.29381C9.48453 6.75942 9.86198 7.13688 10.3276 7.13688H13.2783C13.744 7.13688 14.1214 6.75942 14.1214 6.29381V3.34307C14.1214 2.87745 14.4989 2.5 14.9645 2.5H18.126C18.5916 2.5 18.9691 2.87745 18.9691 3.34307V6.50458C18.9691 6.97019 18.5916 7.34765 18.126 7.34765H15.1752C14.7096 7.34765 14.3322 7.7251 14.3322 8.19072V11.1415C14.3322 11.6071 14.7096 11.9845 15.1752 11.9845L18.126 11.9845ZM10.3276 11.9845C9.86199 11.9845 9.48453 11.6071 9.48453 11.1415L9.48453 8.21026C9.48453 7.74464 9.104 7.35939 8.64612 7.44394C8.03168 7.5574 7.44367 7.79496 6.91928 8.14535C6.15996 8.65271 5.56815 9.37384 5.21867 10.2175C4.8692 11.0612 4.77776 11.9896 4.95592 12.8853C5.13408 13.781 5.57384 14.6037 6.21958 15.2495C6.86533 15.8952 7.68806 16.335 8.58373 16.5131C9.47941 16.6913 10.4078 16.5999 11.2515 16.2504C12.0952 15.9009 12.8163 15.3091 13.3237 14.5498C13.6741 14.0254 13.9116 13.4374 14.0251 12.8229C14.1097 12.3651 13.7244 11.9845 13.2588 11.9845L10.3276 11.9845Z"
        fill="#18181B" />
</svg>